PathFileType	4	(X/Y/Z)	Kaydara																																																																																																																									
DataRate	CameraRate	NumFrames	NumMarkers	Units	OrigDataRate	OrigDataStartFrame	OrigNumFrames																																																																																																																					
30	30	5	41	mm	30	39	147																																																																																																																					
Frame#	Time	PAIB_LFHD			PAIB_RFHD			PAIB_LBHD			PAIB_RBHD			PAIB_LFTShould			PAIB_RFTShould			PAIB_LRRShould			PAIB_RRRShould			PAIB_T10			PAIB_STRN			PAIB_TRUN			PAIB_LSHO			PAIB_LUPA			PAIB_LELB			PAIB_LFRM			PAIB_LWRA			PAIB_LWRB			PAIB_LFIN			PAIB_RSHO			PAIB_RUPA			PAIB_RELB			PAIB_RFRM			PAIB_RWRA			PAIB_RWRB			PAIB_RFIN			PAIB_LFWT			PAIB_RFWT			PAIB_LBWT			PAIB_RBWT			PAIB_LTHI			PAIB_LKNE			PAIB_LSHN			PAIB_LANK			PAIB_LHEE			PAIB_LTOE			PAIB_RTHI			PAIB_RKNE			PAIB_RSHN			PAIB_RANK			PAIB_RHEE			PAIB_RTOE		
		X1	Y1	Z1	X2	Y2	Z2	X3	Y3	Z3	X4	Y4	Z4	X5	Y5	Z5	X6	Y6	Z6	X7	Y7	Z7	X8	Y8	Z8	X9	Y9	Z9	X10	Y10	Z10	X11	Y11	Z11	X12	Y12	Z12	X13	Y13	Z13	X14	Y14	Z14	X15	Y15	Z15	X16	Y16	Z16	X17	Y17	Z17	X18	Y18	Z18	X19	Y19	Z19	X20	Y20	Z20	X21	Y21	Z21	X22	Y22	Z22	X23	Y23	Z23	X24	Y24	Z24	X25	Y25	Z25	X26	Y26	Z26	X27	Y27	Z27	X28	Y28	Z28	X29	Y29	Z29	X30	Y30	Z30	X31	Y31	Z31	X32	Y32	Z32	X33	Y33	Z33	X34	Y34	Z34	X35	Y35	Z35	X36	Y36	Z36	X37	Y37	Z37	X38	Y38	Z38	X39	Y39	Z39	X40	Y40	Z40	X41	Y41	Z41
																																																																																																																												
1	1.27	244.10061	1699.27399	-1974.74518	58.23101	1701.24756	-1984.32251	258.11596	1662.63107	-2100.04364	55.35833	1676.16562	-2098.58398	216.8359	1433.96973	-1970.50156	94.24185	1429.95972	-1974.49692	228.00158	1488.40454	-2119.61517	73.86777	1487.13745	-2112.14447	149.9514	1324.12125	-2187.40326	163.8736	1369.18152	-1930.48477	163.50306	1269.63684	-1901.66336	348.69202	1438.87894	-2052.61887	401.03676	1209.32335	-2054.05319	411.79085	1124.64157	-2093.67218	436.89602	1012.31285	-2050.35492	391.73866	902.22351	-1953.66013	421.79695	880.59761	-2022.95837	442.02065	848.01163	-1960.12482	-34.93966	1427.57477	-2029.78485	-97.26742	1252.39258	-2071.00586	-118.75429	1135.8931	-2078.49365	-141.95412	1001.18004	-2046.47964	-95.5717	898.74893	-1941.48514	-157.36109	884.40559	-1996.2384	-157.50847	851.60324	-1928.36441	267.72961	969.73457	-1934.70673	31.57147	971.44531	-1931.32797	204.3396	1027.57813	-2147.6413	59.98517	1030.53177	-2142.73392	253.66772	750.05058	-2151.24023	295.22787	512.90863	-2067.10617	268.92649	312.60357	-2064.58099	272.07972	128.48585	-2153.69797	218.70892	119.50707	-2202.64862	253.70226	74.87235	-1979.65942	4.17985	731.26427	-2144.86038	-1.85282	487.08561	-2075.38254	56.16916	302.4909	-2068.81668	25.03106	105.98614	-2157.67258	86.95635	114.00358	-2212.49588	42.48494	77.10143	-1989.48868
2	1.303	244.1464	1699.30634	-1974.23309	58.28165	1701.15631	-1984.2543	258.12	1662.83508	-2099.4902	55.35649	1676.11404	-2098.03162	217.09084	1433.87878	-1970.35034	94.48965	1429.81934	-1974.0564	228.16776	1488.44116	-2119.24545	73.98986	1487.15195	-2111.69952	150.10345	1324.19159	-2187.08191	164.27462	1369.15268	-1930.16632	163.86492	1269.57199	-1901.3913	348.70941	1438.98819	-2052.52213	401.31371	1209.30298	-2053.90839	412.13524	1124.74564	-2093.5997	437.13963	1012.40318	-2050.19165	391.98444	902.519	-1953.36624	421.95171	880.72495	-2022.62619	442.16087	848.18825	-1959.75815	-34.73965	1427.47375	-2029.26971	-97.05541	1252.30431	-2070.39261	-118.53578	1135.83809	-2077.90497	-141.60951	1001.10077	-2045.85358	-95.08741	898.67363	-1940.97382	-157.01497	884.34547	-1995.71457	-156.97094	851.45607	-1927.76733	267.90745	969.64272	-1934.5607	31.86179	971.45264	-1930.99548	204.54388	1027.47444	-2147.35535	60.2557	1030.47508	-2142.44629	253.95876	750.00488	-2151.00555	295.35994	512.89673	-2066.95114	269.01173	312.57036	-2064.53812	272.05494	128.46663	-2153.6911	218.74981	119.55208	-2202.59399	253.70012	74.86956	-1979.65668	4.46393	731.21353	-2144.48822	-1.58001	487.05044	-2074.95972	56.25024	302.50418	-2068.57803	25.08218	106.05276	-2157.63397	87.0632	114.05375	-2212.44888	42.52944	77.0628	-1989.44839
3	1.337	244.15911	1699.25552	-1973.73184	58.40203	1701.00983	-1984.08234	258.15382	1662.96143	-2099.04419	55.42034	1676.12961	-2097.60269	218.041	1434.04617	-1970.979	94.7744	1429.79874	-1973.73016	228.30458	1488.44788	-2118.98636	74.10212	1487.08359	-2111.34369	150.27784	1324.15939	-2186.73111	164.64075	1369.19907	-1929.92249	164.22558	1269.55772	-1901.10153	348.91556	1439.07135	-2052.34833	401.5971	1209.36272	-2053.78876	412.40902	1124.81895	-2093.4845	437.46922	1012.48535	-2050.0087	392.30793	902.62642	-1953.05145	422.27512	880.82268	-2022.36115	442.49001	848.32832	-1959.4783	-34.5467	1427.33902	-2028.87817	-96.7575	1252.11945	-2069.9205	-118.0572	1135.52612	-2077.24579	-141.1935	1000.8918	-2045.40466	-94.5592	898.49617	-1940.58228	-156.49572	884.19586	-1995.21469	-156.39651	851.25504	-1927.24365	268.35711	969.64569	-1934.30481	32.09153	971.44585	-1930.69794	204.841	1027.41035	-2147.12311	60.52091	1030.3714	-2142.17194	254.27023	750.0248	-2150.7753	295.56089	512.88071	-2066.93207	269.07755	312.71242	-2064.34631	272.0862	128.41456	-2153.70361	218.75189	119.57701	-2202.59567	253.69009	74.86512	-1979.67529	4.9388	731.12976	-2144.10126	-1.23992	487.07706	-2074.57794	56.45918	302.52726	-2068.3812	25.18353	106.00278	-2157.50351	87.24983	114.15911	-2212.36053	42.54947	77.07068	-1989.39346
4	1.37	244.26975	1699.16962	-1973.38165	58.34851	1700.97992	-1983.54767	258.23795	1663.06229	-2098.73215	55.51538	1676.14532	-2097.22946	218.38436	1434.17206	-1970.85663	95.06464	1429.82346	-1973.45367	228.43075	1488.44482	-2118.8028	74.24591	1487.04071	-2111.07544	150.4774	1324.12079	-2186.47781	164.9329	1369.18732	-1929.65469	164.58202	1269.58961	-1900.90424	349.06113	1439.08264	-2052.5119	401.77895	1209.35219	-2053.55011	412.65736	1124.83887	-2093.28278	437.79797	1012.55638	-2049.82758	392.72392	902.57706	-1952.98553	422.69676	880.9053	-2022.1521	443.00694	848.41698	-1959.31564	-34.32763	1427.19711	-2028.56506	-96.45947	1251.94252	-2069.59259	-117.93232	1135.55443	-2077.22366	-140.7303	1000.6955	-2045.0148	-93.84181	898.34312	-1940.18524	-155.97707	883.98865	-1994.89471	-155.80824	851.05751	-1926.90399	268.82404	969.72137	-1934.02802	32.50272	971.49582	-1930.27054	205.086	1027.4762	-2146.84601	60.79533	1030.42992	-2141.76712	254.46701	750.09727	-2150.6604	295.77219	512.81372	-2066.88507	269.21818	312.53113	-2064.4104	272.1203	128.49385	-2153.70758	218.77903	119.59631	-2202.57446	253.68784	74.86591	-1979.65378	5.16838	731.2011	-2143.77777	-1.06577	487.15919	-2074.51324	56.53691	302.60904	-2068.28644	25.25638	106.26703	-2157.63916	87.37859	114.24177	-2212.30194	42.59614	77.0572	-1989.34998
5	1.403	244.33895	1699.1864	-1973.22159	58.55707	1700.97946	-1983.76907	258.2987	1663.04672	-2098.59833	55.58808	1676.12854	-2096.93237	218.46218	1434.1095	-1970.53696	95.18174	1429.72565	-1973.25058	228.5507	1488.43491	-2118.58353	74.42025	1486.96609	-2110.8461	150.67464	1324.05624	-2186.22284	165.14305	1369.2038	-1929.44214	164.95651	1269.55566	-1900.6337	349.29543	1439.23248	-2052.06879	401.9928	1209.32762	-2053.20679	412.97871	1124.95735	-2093.13614	438.27557	1012.83394	-2049.75098	393.27469	902.74628	-1952.62543	423.18657	881.0215	-2021.95572	443.52005	848.55492	-1959.03625	-34.09578	1427.08527	-2028.26126	-96.16126	1251.82892	-2069.37988	-117.5036	1135.32257	-2076.87103	-140.21429	1000.50079	-2044.78439	-93.11937	898.15903	-1939.99374	-155.33423	883.53958	-1994.40735	-155.12688	850.83099	-1926.65573	269.1062	969.55475	-1933.93661	32.7964	971.45279	-1929.96948	205.27348	1027.50092	-2146.55411	60.99604	1030.44357	-2141.4064	254.66034	750.08133	-2150.50842	295.97124	512.83325	-2066.7218	269.36852	312.54932	-2064.3364	272.14241	128.5224	-2153.5936	218.78237	119.65047	-2202.52396	253.66926	74.79126	-1979.60663	5.25485	731.31119	-2143.59024	-0.98595	487.14405	-2074.40399	56.62587	302.58619	-2068.15979	25.26484	106.22801	-2157.50381	87.34949	114.25533	-2212.27676	42.602	77.04593	-1989.30115
